<svg width="125" height="80" viewBox="0 0 125 80" fill="none" xmlns="http://www.w3.org/2000/svg">
<g filter="url(#filter0_d_37_2400)">
<path d="M16 16C16 11.5817 19.5817 8 24 8H101C105.418 8 109 11.5817 109 16V48C109 52.4183 105.418 56 101 56H24C19.5817 56 16 52.4183 16 48V16Z" fill="#6070FF"/>
<path d="M35.6441 31.812C36.3695 31.9593 36.9531 32.305 37.3951 32.849C37.8485 33.393 38.0751 34.0277 38.0751 34.753C38.0751 35.7503 37.7408 36.5437 37.0721 37.133C36.4035 37.711 35.4345 38 34.1651 38H29.3881V25.998H34.0801C35.2815 25.998 36.1995 26.27 36.8341 26.814C37.4801 27.3467 37.8031 28.0833 37.8031 29.024C37.8031 29.7833 37.6048 30.401 37.2081 30.877C36.8115 31.3417 36.2901 31.6533 35.6441 31.812ZM31.3261 31.166H33.7231C34.4031 31.166 34.9188 31.0073 35.2701 30.69C35.6328 30.3727 35.8141 29.9307 35.8141 29.364C35.8141 28.8087 35.6328 28.3723 35.2701 28.055C34.9188 27.7377 34.3805 27.579 33.6551 27.579H31.3261V31.166ZM33.7741 36.402C34.5108 36.402 35.0775 36.2377 35.4741 35.909C35.8821 35.569 36.0861 35.0987 36.0861 34.498C36.0861 33.8973 35.8821 33.427 35.4741 33.087C35.0661 32.747 34.4938 32.577 33.7571 32.577H31.3261V36.402H33.7741ZM49.0429 28.633V38H47.0879V35.96C46.8499 36.6513 46.4362 37.1897 45.8469 37.575C45.2576 37.949 44.5719 38.136 43.7899 38.136C42.7019 38.136 41.8292 37.7847 41.1719 37.082C40.5146 36.3793 40.1859 35.3763 40.1859 34.073V28.633H42.1239V33.869C42.1239 34.719 42.3392 35.3763 42.7699 35.841C43.2006 36.2943 43.7899 36.521 44.5379 36.521C45.3086 36.521 45.9262 36.2717 46.3909 35.773C46.8556 35.2743 47.0879 34.549 47.0879 33.597V28.633H49.0429ZM56.5829 36.317V38H55.3929C54.3956 38 53.6363 37.762 53.1149 37.286C52.6049 36.7987 52.3499 35.994 52.3499 34.872V30.282H51.0069V28.633H52.3499V26.304H54.3049V28.633H56.5659V30.282H54.3049V34.906C54.3049 35.4387 54.4013 35.807 54.5939 36.011C54.7979 36.215 55.1493 36.317 55.6479 36.317H56.5829ZM63.6174 36.317V38H62.4274C61.43 38 60.6707 37.762 60.1494 37.286C59.6394 36.7987 59.3844 35.994 59.3844 34.872V30.282H58.0414V28.633H59.3844V26.304H61.3394V28.633H63.6004V30.282H61.3394V34.906C61.3394 35.4387 61.4357 35.807 61.6284 36.011C61.8324 36.215 62.1837 36.317 62.6824 36.317H63.6174ZM70.2268 28.514C71.1334 28.514 71.9494 28.7067 72.6748 29.092C73.4001 29.4773 73.9668 30.0327 74.3748 30.758C74.7828 31.4833 74.9868 32.3333 74.9868 33.308C74.9868 34.294 74.7828 35.1497 74.3748 35.875C73.9668 36.6003 73.4001 37.1557 72.6748 37.541C71.9494 37.9263 71.1334 38.119 70.2268 38.119C69.3201 38.119 68.5041 37.9263 67.7788 37.541C67.0648 37.1557 66.4981 36.6003 66.0788 35.875C65.6708 35.1383 65.4668 34.2827 65.4668 33.308C65.4668 32.3333 65.6708 31.4833 66.0788 30.758C66.4981 30.0327 67.0648 29.4773 67.7788 29.092C68.5041 28.7067 69.3201 28.514 70.2268 28.514ZM70.2268 30.197C69.7281 30.197 69.2691 30.3103 68.8498 30.537C68.4304 30.7637 68.0904 31.115 67.8298 31.591C67.5804 32.0557 67.4558 32.628 67.4558 33.308C67.4558 33.9993 67.5804 34.5773 67.8298 35.042C68.0904 35.5067 68.4304 35.8523 68.8498 36.079C69.2691 36.3057 69.7281 36.419 70.2268 36.419C70.7254 36.419 71.1844 36.3057 71.6038 36.079C72.0231 35.8523 72.3574 35.5067 72.6068 35.042C72.8674 34.5773 72.9978 33.9993 72.9978 33.308C72.9978 32.628 72.8674 32.0557 72.6068 31.591C72.3574 31.115 72.0231 30.7637 71.6038 30.537C71.1844 30.3103 70.7254 30.197 70.2268 30.197ZM82.596 28.48C83.684 28.48 84.5567 28.8313 85.214 29.534C85.8713 30.2367 86.2 31.2397 86.2 32.543V38H84.262V32.747C84.262 31.9083 84.0467 31.2623 83.616 30.809C83.1853 30.3443 82.596 30.112 81.848 30.112C81.0773 30.112 80.4597 30.3613 79.995 30.86C79.5303 31.3473 79.298 32.067 79.298 33.019V38H77.36V28.633H79.298V30.69C79.5473 29.9873 79.9667 29.4433 80.556 29.058C81.1453 28.6727 81.8253 28.48 82.596 28.48ZM92.0534 28.514C93.1528 28.514 94.0311 28.7973 94.6884 29.364C95.3571 29.9193 95.7651 30.6673 95.9124 31.608H94.0764C93.9971 31.098 93.7761 30.69 93.4134 30.384C93.0621 30.0667 92.5918 29.908 92.0024 29.908C91.5151 29.908 91.1354 30.027 90.8634 30.265C90.6028 30.4917 90.4724 30.8033 90.4724 31.2C90.4724 31.4947 90.5688 31.7327 90.7614 31.914C90.9541 32.0953 91.1921 32.237 91.4754 32.339C91.7701 32.441 92.1838 32.5543 92.7164 32.679C93.4191 32.8377 93.9858 33.002 94.4164 33.172C94.8584 33.342 95.2324 33.614 95.5384 33.988C95.8558 34.3507 96.0144 34.8493 96.0144 35.484C96.0144 36.266 95.7141 36.9007 95.1134 37.388C94.5241 37.8753 93.7251 38.119 92.7164 38.119C91.5491 38.119 90.6028 37.847 89.8774 37.303C89.1634 36.759 88.7328 35.9997 88.5854 35.025H90.4724C90.5291 35.535 90.7558 35.9487 91.1524 36.266C91.5491 36.5833 92.0704 36.742 92.7164 36.742C93.1811 36.742 93.5438 36.623 93.8044 36.385C94.0764 36.1357 94.2124 35.824 94.2124 35.45C94.2124 35.1213 94.1104 34.8607 93.9064 34.668C93.7024 34.4753 93.4474 34.328 93.1414 34.226C92.8354 34.1127 92.4161 33.9993 91.8834 33.886C91.2034 33.7273 90.6481 33.5687 90.2174 33.41C89.7981 33.2513 89.4354 32.9963 89.1294 32.645C88.8348 32.2823 88.6874 31.795 88.6874 31.183C88.6874 30.3897 88.9821 29.7493 89.5714 29.262C90.1721 28.7633 90.9994 28.514 92.0534 28.514Z" fill="white"/>
</g>
<defs>
<filter id="filter0_d_37_2400" x="0" y="0" width="125" height="80" filterUnits="userSpaceOnUse" color-interpolation-filters="sRGB">
<feFlood flood-opacity="0" result="BackgroundImageFix"/>
<feColorMatrix in="SourceAlpha" type="matrix" values="0 0 0 0 0 0 0 0 0 0 0 0 0 0 0 0 0 0 127 0" result="hardAlpha"/>
<feOffset dy="8"/>
<feGaussianBlur stdDeviation="8"/>
<feColorMatrix type="matrix" values="0 0 0 0 0.25098 0 0 0 0 0.32549 0 0 0 0 0.988235 0 0 0 0.24 0"/>
<feBlend mode="normal" in2="BackgroundImageFix" result="effect1_dropShadow_37_2400"/>
<feBlend mode="normal" in="SourceGraphic" in2="effect1_dropShadow_37_2400" result="shape"/>
</filter>
</defs>
</svg>
